<svg xmlns="http://www.w3.org/2000/svg" xmlns:xlink="http://www.w3.org/1999/xlink" xmlns:inkscape="http://www.inkscape.org/namespaces/inkscape" version="1.1" width="1500" height="600" viewBox="0 0 1500 600">
<defs>
<clipPath id="clip_1">
<path transform="matrix(1,0,0,-1,0,600)" d="M0 600H1500V0H0Z"/>
</clipPath>
</defs>
<g inkscape:groupmode="layer" inkscape:label="Layer 1">
<g clip-path="url(#clip_1)">
<path transform="matrix(1,0,0,-1,211.478,337.0947)" d="M0 0H42.383C60.178 0 74.731 4.242 86.043 12.708 97.319 21.191 102.975 34.606 102.975 52.971 102.975 71.334 97.319 84.749 86.043 93.216 74.731 101.699 60.178 105.941 42.383 105.941H0ZM152.118-145.358C152.118-147.894 150.29-149.169 146.635-149.169H110.597C107.217-149.169 104.665-147.756 102.975-144.928L35.175-41.538H0V-142.807C0-144.789-.552-146.342-1.689-147.479-2.828-148.601-4.38-149.169-6.346-149.169H-39.832C-41.797-149.169-43.383-148.601-44.487-147.479-45.625-146.342-46.177-144.789-46.177-142.807V141.116C-46.177 143.083-45.625 144.634-44.487 145.772-43.383 146.893-41.797 147.462-39.832 147.462H44.073C65.834 147.462 84.456 143.444 100.01 135.392 115.528 127.34 127.357 116.166 135.392 101.906 143.461 87.646 147.462 71.334 147.462 52.971 147.462 30.934 141.668 11.932 130.116-4.035 118.528-20.002 102.147-30.935 80.938-36.865L150.876-141.548C151.704-142.669 152.118-143.945 152.118-145.358" fill="#1bace3"/>
<path transform="matrix(1,0,0,-1,214.5513,334.0215)" d="M0 0H39.31C56.335 0 70.404 4.069 81.128 12.096 91.544 19.931 96.829 32.65 96.829 49.897 96.829 67.147 91.544 79.862 81.124 87.685 70.41 95.72 56.341 99.795 39.31 99.795H0ZM39.31-6.146H-6.147V105.941H39.31C57.701 105.941 73.01 101.454 84.813 92.602 96.865 83.553 102.975 69.186 102.975 49.897 102.975 30.615 96.866 16.243 84.817 7.179 73.001-1.665 57.692-6.146 39.31-6.146M-6.147-41.538H33.762L102.54-146.424C103.674-148.323 105.211-149.169 107.523-149.169H143.562C145.472-149.169 145.945-148.745 145.949-148.74 145.954-148.747 145.972-148.649 145.972-148.433 145.972-147.67 145.768-147.038 145.331-146.448L145.247-146.328 72.955-38.121 77.037-36.979C97.459-31.269 113.446-20.61 124.555-5.304 135.675 10.066 141.315 28.641 141.315 49.897 141.315 67.679 137.389 83.634 129.644 97.319 121.946 110.979 110.467 121.836 95.521 129.591 80.495 137.37 62.15 141.315 41 141.315H-42.905C-44.036 141.315-44.866 141.055-45.37 140.542-45.727 140.187-46.177 139.56-46.177 138.043V-145.879C-46.177-147.412-45.727-148.04-45.387-148.379-44.866-148.909-44.036-149.169-42.905-149.169H-9.418C-7.738-149.169-7.123-148.562-6.92-148.363-6.597-148.04-6.147-147.413-6.147-145.879ZM143.562-155.315H107.523C103.078-155.315 99.544-153.353 97.299-149.637L30.443-47.685H0V-145.879C0-148.704-.872-151.008-2.591-152.727-4.339-154.449-6.631-155.315-9.418-155.315H-42.905C-45.704-155.315-48.072-154.414-49.751-152.709-51.452-151.007-52.323-148.703-52.323-145.879V138.043C-52.323 140.856-51.452 143.153-49.733 144.873-48.072 146.561-45.704 147.462-42.905 147.462H41C63.144 147.462 82.439 143.286 98.349 135.048 114.376 126.731 126.705 115.055 134.997 100.341 143.267 85.727 147.462 68.752 147.462 49.897 147.462 27.319 141.43 7.533 129.532-8.91 118.335-24.34 102.605-35.354 82.732-41.69L150.322-142.858C151.514-144.499 152.118-146.373 152.118-148.433 152.118-150.046 151.501-155.315 143.562-155.315" fill="#303263"/>
<path transform="matrix(1,0,0,-1,351.0742,254.2861)" d="M0 0C-1.842 6.054-4.331 11.872-7.397 17.291-15.038 30.85-26.435 41.625-41.276 49.328-50.74 54.227-61.573 57.621-73.476 59.417L-72.38 66.672C-59.683 64.757-48.081 61.113-37.899 55.842-21.768 47.471-9.356 35.716-1.008 20.898 2.32 15.019 5.022 8.704 7.021 2.136Z" fill="#1bace3"/>
<path transform="matrix(1,0,0,-1,386.1611,245.1572)" d="M0 0C-2.628 8.565-6.163 16.798-10.505 24.473-21.439 43.877-37.755 59.302-59.006 70.329-70.915 76.494-84.36 81.008-98.967 83.744L-96.716 95.765C-80.934 92.809-66.354 87.905-53.379 81.188-29.977 69.045-11.971 51.987 .145 30.486 4.917 22.052 8.805 12.999 11.692 3.587Z" fill="#1bace3"/>
<path transform="matrix(1,0,0,-1,437.626,231.3916)" d="M0 0C-3.759 12.735-8.922 24.946-15.344 36.295-30.753 63.641-53.735 85.375-83.656 100.9-99.719 109.216-117.766 115.396-137.292 119.269L-134.912 131.265C-114.257 127.169-95.119 120.607-78.028 111.759-45.956 95.117-21.286 71.751-4.695 42.31 2.179 30.162 7.708 17.088 11.73 3.462Z" fill="#1bace3"/>
<path transform="matrix(1,0,0,-1,423.1201,291.7559)" d="M0 0C.757 .758 1.803 1.14 3.134 1.14H24.504C25.832 1.14 26.877 .758 27.639 0 28.396-.761 28.779-1.807 28.779-3.133V-134.206C28.779-135.537 28.396-136.584 27.639-137.341 26.877-138.102 25.832-138.48 24.504-138.48H3.134C1.803-138.48 .757-138.102 0-137.341-.761-136.584-1.14-135.537-1.14-134.206V-3.133C-1.14-1.807-.761-.761 0 0" fill="#313263"/>
<path transform="matrix(1,0,0,-1,567.2954,400.31843)" d="M0 0C6.457 4.178 11.492 9.782 15.102 16.812 18.708 23.837 20.517 31.531 20.517 39.893 20.517 48.058 18.708 55.657 15.102 62.688 11.492 69.713 6.457 75.27 0 79.356-6.459 83.439-13.677 85.482-21.654 85.482-29.634 85.482-36.855 83.488-43.31 79.498-49.771 75.51-54.805 70.047-58.412 63.115-62.022 56.178-63.824 48.44-63.824 39.893-63.824 31.345-61.973 23.509-58.27 16.385-54.564 9.262-49.534 3.704-43.168-.284-36.805-4.272-29.634-6.268-21.654-6.268-13.677-6.268-6.459-4.18 0 0M48.726 176.949C49.482 176.187 49.865 175.14 49.865 173.814V-25.644C49.865-26.975 49.482-28.021 48.726-28.778 47.963-29.539 46.917-29.918 45.59-29.918H26.215C23.744-29.918 22.319-28.493 21.941-25.644L20.801-11.396C15.289-18.234 8.69-23.648 .999-27.639-6.696-31.628-15.292-33.622-24.79-33.622-37.71-33.622-49.293-30.39-59.552-23.934-69.809-17.479-77.885-8.646-83.771 2.564-89.662 13.771-92.604 26.117-92.604 39.608-92.604 53.093-89.662 65.439-83.771 76.649-77.885 87.855-69.809 96.688-59.552 103.149-49.293 109.604-37.71 112.837-24.79 112.837-15.672 112.837-7.364 110.936 .144 107.138 7.645 103.336 14.247 98.02 19.945 91.182V173.814C19.945 175.14 20.324 176.187 21.086 176.949 21.842 177.705 22.888 178.088 24.22 178.088H45.59C46.917 178.088 47.963 177.705 48.726 176.949" fill="#313263"/>
<path transform="matrix(1,0,0,-1,682.2651,323.5264)" d="M0 0C-7.506-6.937-11.923-16.197-13.25-27.781H66.533C65.581-16.385 61.499-7.173 54.281-.143 47.06 6.884 38.04 10.4 27.211 10.4 16.571 10.4 7.502 6.932 0 0M61.547 26.642C71.52 20.374 79.257 11.968 84.77 1.425 90.277-9.117 93.033-20.564 93.033-32.911 93.033-38.609 92.415-42.647 91.181-45.02 89.943-47.397 87.521-48.582 83.915-48.582H-12.965C-11.068-59.979-6.126-69.004 1.852-75.65 9.83-82.303 20.087-85.624 32.625-85.624 39.464-85.624 45.541-84.628 50.861-82.632 56.178-80.638 61.405-77.744 66.533-73.941 67.859-72.993 69-72.518 69.953-72.518 70.901-72.518 71.755-72.9 72.518-73.657L81.635-82.49C82.775-83.63 83.344-84.675 83.344-85.624 83.344-86.764 82.775-87.903 81.635-89.044 74.983-95.882 67.197-101.152 58.27-104.856 49.339-108.563 39.843-110.414 29.776-110.414 15.908-110.414 3.463-107.182-7.551-100.726-18.57-94.271-27.118-85.482-33.196-74.369-39.278-63.256-42.314-50.861-42.314-37.184-42.314-23.699-39.322-11.353-33.338-.143-27.354 11.063-19.091 19.896-8.548 26.357 1.994 32.813 13.82 36.045 26.927 36.045 40.034 36.045 51.574 32.91 61.547 26.642" fill="#313263"/>
<path transform="matrix(1,0,0,-1,953.668,231.91849)" d="M0 0C.756-.762 1.14-1.807 1.14-3.134V-194.043C1.14-195.375 .756-196.421 0-197.178-.761-197.939-1.71-198.318-2.849-198.318H-30.203C-32.483-198.318-34.193-197.369-35.333-195.468L-121.669-46.16V-194.043C-121.669-195.375-122.053-196.421-122.809-197.178-123.57-197.939-124.616-198.318-125.943-198.318H-148.453C-149.785-198.318-150.831-197.939-151.588-197.178-152.35-196.421-152.728-195.375-152.728-194.043V-3.134C-152.728-1.995-152.397-1.046-151.729-.285-151.067 .473-150.163 .948-149.023 1.14H-121.385C-119.104 1.14-117.395 .187-116.256-1.709L-29.919-151.302V-3.134C-29.919-1.807-29.541-.762-28.779 0-28.021 .757-26.977 1.14-25.645 1.14H-3.135C-1.807 1.14-.761 .757 0 0" fill="#00ade7"/>
<path transform="matrix(1,0,0,-1,829.1729,267.5464)" d="M0 0 91.608-158.425C92.215-159.436 92.998-159.864 94.292-159.864H121.646C122.094-159.864 122.305-159.745 122.497-159.552 122.703-159.345 122.809-158.962 122.809-158.416V32.494C122.809 33.29 122.583 33.542 122.497 33.628 122.412 33.713 122.163 33.942 121.36 33.942H98.851C98.304 33.942 97.922 33.837 97.714 33.63 97.637 33.553 97.401 33.318 97.401 32.494V-126.224L5.793 32.504C5.186 33.514 4.402 33.942 3.11 33.942H-24.255C-24.759 33.824-24.982 33.626-25.109 33.481-25.248 33.324-25.406 33.069-25.406 32.494V-158.416C-25.406-158.964-25.303-159.345-25.101-159.547-24.888-159.761-24.507-159.864-23.959-159.864H-1.448C-.624-159.864-.39-159.63-.313-159.553-.105-159.345 0-158.962 0-158.416ZM121.646-165.515H94.292C91.005-165.515 88.394-164.055 86.738-161.292L5.651-21.063V-158.416C5.651-161.03 4.583-162.649 3.686-163.547 2.788-164.445 1.17-165.515-1.448-165.515H-23.959C-26.583-165.515-28.201-164.443-29.096-163.543-29.986-162.658-31.058-161.041-31.058-158.416V32.494C-31.058 34.335-30.486 35.921-29.36 37.207-28.261 38.462-26.793 39.252-24.999 39.555L-24.528 39.594H3.11C6.392 39.594 9.003 38.134 10.662 35.373L91.75-105.125V32.494C91.75 35.11 92.819 36.729 93.718 37.625 94.615 38.523 96.234 39.594 98.851 39.594H121.36C123.967 39.594 125.587 38.527 126.487 37.632L126.501 37.618C127.395 36.718 128.461 35.098 128.461 32.494V-158.416C128.461-161.03 127.392-162.649 126.495-163.547 125.206-164.834 123.53-165.515 121.646-165.515" fill="#303263"/>
<path transform="matrix(1,0,0,-1,1022.7656,323.5264)" d="M0 0C-7.506-6.937-11.923-16.197-13.249-27.781H66.533C65.581-16.385 61.499-7.173 54.281-.143 47.061 6.884 38.04 10.4 27.212 10.4 16.571 10.4 7.502 6.932 0 0M61.547 26.642C71.521 20.374 79.258 11.968 84.77 1.425 90.277-9.117 93.033-20.564 93.033-32.911 93.033-38.609 92.414-42.647 91.182-45.02 89.943-47.397 87.521-48.582 83.915-48.582H-12.965C-11.068-59.979-6.126-69.004 1.852-75.65 9.83-82.303 20.088-85.624 32.626-85.624 39.465-85.624 45.542-84.628 50.861-82.632 56.178-80.638 61.405-77.744 66.533-73.941 67.859-72.993 69.001-72.518 69.953-72.518 70.901-72.518 71.757-72.9 72.518-73.657L81.636-82.49C82.775-83.63 83.345-84.675 83.345-85.624 83.345-86.764 82.775-87.903 81.636-89.044 74.983-95.882 67.197-101.152 58.271-104.856 49.339-108.563 39.843-110.414 29.776-110.414 15.908-110.414 3.464-107.182-7.551-100.726-18.57-94.271-27.117-85.482-33.195-74.369-39.277-63.256-42.313-50.861-42.313-37.184-42.313-23.699-39.321-11.353-33.338-.143-27.354 11.063-19.091 19.896-8.548 26.357 1.994 32.813 13.82 36.045 26.927 36.045 40.034 36.045 51.574 32.91 61.547 26.642" fill="#313263"/>
<path transform="matrix(1,0,0,-1,1245.7295,427.6709)" d="M0 0C0-.762-.334-1.38-.998-1.853-1.666-2.329-2.565-2.565-3.704-2.565H-27.925C-30.017-2.565-31.727-1.616-33.054 .284L-62.401 45.875-91.751 .284C-93.082-1.616-94.792-2.565-96.88-2.565H-121.1C-122.24-2.565-123.143-2.329-123.807-1.853-124.475-1.38-124.804-.762-124.804 0-124.804 .948-124.519 1.804-123.948 2.564L-78.929 68.955-121.67 131.926C-122.24 132.875-122.524 133.729-122.524 134.49-122.524 135.248-122.194 135.866-121.527 136.343-120.864 136.815-119.96 137.055-118.82 137.055H-94.601C-92.512 137.055-90.802 136.103-89.472 134.206L-62.401 92.034-35.048 134.206C-33.908 136.103-32.198 137.055-29.919 137.055H-5.699C-4.56 137.055-3.66 136.815-2.992 136.343-2.328 135.866-1.994 135.248-1.994 134.49-1.994 133.729-2.28 132.875-2.85 131.926L-45.875 68.955-.855 2.564C-.285 1.804 0 .948 0 0" fill="#313263"/>
<path transform="matrix(1,0,0,-1,1336.9121,291.7559)" d="M0 0C.757-.761 1.139-1.807 1.139-3.133V-19.375C1.139-20.707 .757-21.753 0-22.51-.763-23.271-1.809-23.649-3.135-23.649H-23.081V-134.206C-23.081-135.537-23.464-136.584-24.221-137.341-24.981-138.102-26.028-138.48-27.355-138.48H-48.726C-50.057-138.48-51.104-138.102-51.86-137.341-52.621-136.584-53-135.537-53-134.206V-23.649H-72.946C-74.276-23.649-75.322-23.271-76.08-22.51-76.841-21.753-77.219-20.707-77.219-19.375V-3.133C-77.219-1.807-76.841-.761-76.08 0-75.322 .758-74.276 1.14-72.946 1.14H-53V39.606C-53 40.934-52.621 41.98-51.86 42.741-51.104 43.498-50.057 43.881-48.726 43.881H-27.355C-26.028 43.881-24.981 43.498-24.221 42.741-23.464 41.98-23.081 40.934-23.081 39.606V1.14H-3.135C-1.809 1.14-.763 .758 0 0" fill="#313263"/>
<path transform="matrix(1,0,0,-1,448.9829,286.6299)" d="M0 0H-24.087C-25.697 0-27.003 1.305-27.003 2.916V23.308C-27.003 24.918-25.697 26.223-24.087 26.223H0C1.61 26.223 2.916 24.918 2.916 23.308V2.916C2.916 1.305 1.61 0 0 0" fill="#313263"/>
<path transform="matrix(1,0,0,-1,489.8403,469.0986)" d="M0 0C.15-.152 .227-.36 .227-.624V-1.984C.227-5.537-.52-8.722-2.012-11.536-3.506-14.352-5.632-16.554-8.39-18.141-11.149-19.728-14.361-20.522-18.027-20.522-21.768-20.522-25.161-19.605-28.202-17.772-31.244-15.94-33.625-13.455-35.345-10.318-37.065-7.182-37.924-3.724-37.924 .056-37.924 3.76-37.045 7.16-35.288 10.26-33.531 13.358-31.141 15.815-28.117 17.629-25.094 19.442-21.75 20.351-18.083 20.351-13.473 20.351-9.051 18.593-4.819 15.078-4.592 14.926-4.479 14.719-4.479 14.454-4.479 14.229-4.573 14.038-4.762 13.888L-5.953 12.697C-6.217 12.508-6.406 12.414-6.519 12.414-6.671 12.414-6.878 12.508-7.143 12.697-10.507 15.494-14.135 16.893-18.027 16.893-20.974 16.893-23.695 16.155-26.19 14.682-28.684 13.207-30.668 11.186-32.142 8.615-33.615 6.046-34.353 3.192-34.353 .056-34.353-3.156-33.625-6.067-32.17-8.674-30.716-11.281-28.75-13.332-26.274-14.824-23.8-16.318-21.051-17.064-18.027-17.064-15.23-17.064-12.718-16.488-10.487-15.335-8.258-14.183-6.482-12.549-5.159-10.431-3.836-8.315-3.138-5.896-3.061-3.175H-17.346C-17.612-3.175-17.819-3.1-17.97-2.948-18.121-2.798-18.197-2.59-18.197-2.324V-.624C-18.197-.36-18.121-.152-17.97 0-17.819 .149-17.612 .226-17.346 .226H-.624C-.359 .226-.152 .149 0 0" fill="#313263"/>
<path transform="matrix(1,0,0,-1,548.3413,461.6729)" d="M0 0C0-.189-.038-.34-.113-.454L-.793-1.871C-.945-2.136-1.153-2.268-1.417-2.268-1.606-2.268-1.937-2.212-2.409-2.098-2.882-1.984-3.401-1.928-3.968-1.928-5.707-1.928-7.19-2.523-8.417-3.713-9.646-4.903-10.26-6.387-10.26-8.163V-26.359C-10.26-26.624-10.336-26.833-10.487-26.983-10.638-27.135-10.847-27.21-11.11-27.21H-12.811C-13.076-27.21-13.284-27.135-13.435-26.983-13.586-26.833-13.662-26.624-13.662-26.359V-.284C-13.662-.02-13.586 .188-13.435 .34-13.284 .49-13.076 .566-12.811 .566H-11.394C-10.903 .566-10.62 .282-10.543-.284L-10.317-2.607C-8.541-.076-6.273 1.189-3.515 1.189-2.154 1.189-1.058 .925-.227 .396-.076 .282 0 .149 0 0" fill="#313263"/>
<path transform="matrix(1,0,0,-1,608.0337,485.0859)" d="M0 0C1.625 .983 2.91 2.354 3.854 4.11 4.798 5.868 5.271 7.842 5.271 10.034 5.271 12.226 4.798 14.201 3.854 15.958 2.91 17.715 1.625 19.085 0 20.068-1.626 21.051-3.439 21.542-5.442 21.542-7.445 21.542-9.26 21.051-10.884 20.068-12.509 19.085-13.794 17.715-14.739 15.958-15.684 14.201-16.156 12.226-16.156 10.034-16.156 7.842-15.684 5.868-14.739 4.11-13.794 2.354-12.509 .983-10.884 0-9.26-.982-7.445-1.473-5.442-1.473-3.439-1.473-1.626-.982 0 0M-12.556-2.607C-14.692-1.322-16.374 .435-17.602 2.665-18.83 4.895-19.444 7.352-19.444 10.034-19.444 12.718-18.83 15.173-17.602 17.404-16.374 19.634-14.692 21.391-12.556 22.675-10.422 23.96-8.049 24.603-5.442 24.603-2.834 24.603-.473 23.96 1.644 22.675 3.76 21.391 5.432 19.643 6.661 17.432 7.889 15.222 8.503 12.755 8.503 10.034 8.503 7.313 7.889 4.848 6.661 2.636 5.432 .426 3.76-1.322 1.644-2.607-.473-3.891-2.834-4.535-5.442-4.535-8.049-4.535-10.422-3.891-12.556-2.607" fill="#313263"/>
<path transform="matrix(1,0,0,-1,702.8994,461.3613)" d="M0 0C.132-.17 .142-.407 .029-.709L-9.835-26.842C-9.987-27.295-10.327-27.521-10.856-27.521H-12.895C-13.388-27.521-13.728-27.295-13.916-26.842L-22.59-4.28-31.263-26.842C-31.414-27.295-31.754-27.521-32.284-27.521H-34.325C-34.854-27.521-35.193-27.295-35.345-26.842L-45.264-.709C-45.302-.596-45.321-.464-45.321-.312-45.321 .065-45.075 .255-44.584 .255H-42.884C-42.393 .255-42.053 .028-41.863-.426L-33.247-23.837-24.29-.426C-24.177-.086-23.989 .104-23.724 .142-23.572 .216-23.42 .255-23.27 .255H-21.91C-21.758 .255-21.607 .216-21.455 .142-21.192 .104-21.002-.086-20.889-.426L-11.932-23.837-3.316-.426C-3.128 .028-2.787 .255-2.296 .255H-.652C-.349 .255-.133 .169 0 0" fill="#313263"/>
<path transform="matrix(1,0,0,-1,824.2939,449.4287)" d="M0 0C.15-.151 .227-.36 .227-.624V-2.268C.227-2.532 .15-2.74 0-2.891-.151-3.042-.36-3.118-.624-3.118H-9.751V-38.604C-9.751-38.868-9.826-39.077-9.978-39.228-10.129-39.379-10.337-39.454-10.601-39.454H-12.472C-12.736-39.454-12.945-39.379-13.096-39.228-13.247-39.077-13.322-38.868-13.322-38.604V-3.118H-22.448C-22.713-3.118-22.922-3.042-23.072-2.891-23.224-2.74-23.299-2.532-23.299-2.268V-.624C-23.299-.36-23.224-.151-23.072 0-22.922 .15-22.713 .227-22.448 .227H-.624C-.36 .227-.151 .15 0 0" fill="#313263"/>
<path transform="matrix(1,0,0,-1,880.9248,485.0859)" d="M0 0C1.623 .983 2.908 2.354 3.854 4.11 4.799 5.868 5.271 7.842 5.271 10.034 5.271 12.226 4.799 14.201 3.854 15.958 2.908 17.715 1.623 19.085 0 20.068-1.626 21.051-3.439 21.542-5.441 21.542-7.446 21.542-9.26 21.051-10.885 20.068-12.51 19.085-13.795 17.715-14.739 15.958-15.685 14.201-16.157 12.226-16.157 10.034-16.157 7.842-15.685 5.868-14.739 4.11-13.795 2.354-12.51 .983-10.885 0-9.26-.982-7.446-1.473-5.441-1.473-3.439-1.473-1.626-.982 0 0M-12.557-2.607C-14.692-1.322-16.374 .435-17.602 2.665-18.83 4.895-19.444 7.352-19.444 10.034-19.444 12.718-18.83 15.173-17.602 17.404-16.374 19.634-14.692 21.391-12.557 22.675-10.423 23.96-8.05 24.603-5.441 24.603-2.834 24.603-.474 23.96 1.645 22.675 3.76 21.391 5.432 19.643 6.66 17.432 7.889 15.222 8.503 12.755 8.503 10.034 8.503 7.313 7.889 4.848 6.66 2.636 5.432 .426 3.76-1.322 1.645-2.607-.474-3.891-2.834-4.535-5.441-4.535-8.05-4.535-10.423-3.891-12.557-2.607" fill="#313263"/>
<path transform="matrix(1,0,0,-1,953.626,483.2705)" d="M0 0C1.908 1.737 3.089 3.892 3.543 6.462L3.713 8.56 3.657 9.977C3.43 11.753 2.835 13.377 1.87 14.852 .907 16.325-.322 17.495-1.813 18.365-3.308 19.235-4.96 19.67-6.773 19.67-8.778 19.67-10.581 19.178-12.188 18.196-13.794 17.213-15.06 15.872-15.985 14.172-16.913 12.47-17.375 10.601-17.375 8.56-17.375 6.48-16.921 4.591-16.014 2.891-15.107 1.19-13.841-.152-12.217-1.134-10.592-2.117-8.778-2.608-6.773-2.608-4.166-2.608-1.909-1.739 0 0M6.434 21.937C6.584 21.786 6.661 21.578 6.661 21.313V-4.989C6.661-7.672 5.98-9.901 4.62-11.678 3.26-13.454 1.521-14.758-.595-15.589-2.713-16.421-4.923-16.837-7.228-16.837-11.348-16.837-14.767-15.986-17.488-14.285-17.753-14.135-17.885-13.907-17.885-13.605-17.885-13.492-17.848-13.322-17.771-13.095L-17.262-12.132C-17.072-11.828-16.847-11.678-16.58-11.678-16.506-11.678-16.354-11.715-16.128-11.792-14.844-12.396-13.52-12.868-12.159-13.209-10.8-13.549-9.23-13.719-7.454-13.719-4.507-13.719-1.984-13.02 .113-11.622 2.211-10.223 3.26-8.106 3.26-5.272V-.341C2.126-2.041 .681-3.365-1.078-4.309-2.834-5.254-4.81-5.726-7.001-5.726-9.608-5.726-11.952-5.093-14.03-3.827-16.109-2.562-17.734-.842-18.905 1.331-20.077 3.504-20.662 5.895-20.662 8.503-20.662 11.11-20.077 13.5-18.905 15.674-17.734 17.847-16.109 19.565-14.03 20.832-11.952 22.098-9.608 22.73-7.001 22.73-4.81 22.73-2.834 22.258-1.078 21.313 .681 20.369 2.106 19.084 3.203 17.459L3.43 21.313C3.504 21.88 3.788 22.164 4.279 22.164H5.811C6.074 22.164 6.282 22.088 6.434 21.937" fill="#313263"/>
<path transform="matrix(1,0,0,-1,1011.4736,466.4063)" d="M0 0C-1.852-1.91-2.909-4.337-3.174-7.284H17.007C16.969-5.471 16.516-3.779 15.646-2.211 14.776-.644 13.587 .595 12.075 1.501 10.563 2.408 8.862 2.862 6.974 2.862 4.177 2.862 1.852 1.908 0 0M13.833 4.053C15.797 2.806 17.318 1.161 18.396-.879 19.473-2.92 20.012-5.111 20.012-7.454 20.012-8.438 19.906-9.128 19.7-9.523 19.491-9.921 19.065-10.119 18.424-10.119H-3.174C-2.834-13.029-1.682-15.429 .284-17.318 2.249-19.209 4.763-20.152 7.823-20.152 10.922-20.152 13.587-19.151 15.816-17.148 16.08-16.885 16.326-16.752 16.554-16.752 16.704-16.752 16.855-16.828 17.007-16.979L17.743-17.659C18.008-17.924 18.141-18.15 18.141-18.339 18.141-18.528 18.027-18.735 17.802-18.963 16.478-20.322 14.928-21.371 13.152-22.108 11.376-22.845 9.468-23.215 7.427-23.215 4.743-23.215 2.344-22.57 .228-21.287-1.889-20.002-3.542-18.245-4.733-16.015-5.923-13.785-6.519-11.328-6.519-8.646-6.519-5.925-5.942-3.458-4.789-1.248-3.637 .963-2.031 2.711 .029 3.995 2.089 5.28 4.423 5.923 7.03 5.923 9.6 5.923 11.867 5.3 13.833 4.053" fill="#313263"/>
<path transform="matrix(1,0,0,-1,1087.208,461.333)" d="M0 0C.15-.151 .228-.359 .228-.624V-1.871C.228-2.136 .15-2.344 0-2.495-.15-2.646-.359-2.721-.623-2.721H-4.592V-26.699C-4.592-26.964-4.667-27.173-4.817-27.323-4.969-27.475-5.178-27.55-5.441-27.55H-7.142C-7.406-27.55-7.615-27.475-7.766-27.323-7.917-27.173-7.992-26.964-7.992-26.699V-2.721H-11.961C-12.226-2.721-12.434-2.646-12.584-2.495-12.735-2.344-12.811-2.136-12.811-1.871V-.624C-12.811-.359-12.735-.151-12.584 0-12.434 .15-12.226 .227-11.961 .227H-7.992V7.879C-7.992 8.144-7.917 8.352-7.766 8.503-7.615 8.653-7.406 8.729-7.142 8.729H-5.441C-5.178 8.729-4.969 8.653-4.817 8.503-4.667 8.352-4.592 8.144-4.592 7.879V.227H-.623C-.359 .227-.15 .15 0 0" fill="#313263"/>
<path transform="matrix(1,0,0,-1,1151.917,463.2041)" d="M0 0C1.719-1.813 2.579-4.535 2.579-8.163V-24.828C2.579-25.093 2.503-25.302 2.353-25.452 2.201-25.604 1.993-25.679 1.729-25.679H.028C-.236-25.679-.444-25.604-.595-25.452-.747-25.302-.822-25.093-.822-24.828V-8.163C-.822-5.631-1.408-3.676-2.579-2.295-3.751-.916-5.414-.226-7.567-.226-9.345-.226-10.912-.681-12.273-1.587-13.633-2.494-14.711-3.524-15.504-4.676-16.298-5.829-16.694-6.651-16.694-7.143V-24.828C-16.694-25.093-16.771-25.302-16.921-25.452-17.072-25.604-17.281-25.679-17.545-25.679H-19.245C-19.511-25.679-19.719-25.604-19.869-25.452-20.021-25.302-20.097-25.093-20.097-24.828V14.853C-20.097 15.116-20.021 15.324-19.869 15.476-19.719 15.627-19.511 15.702-19.245 15.702H-17.545C-17.281 15.702-17.072 15.627-16.921 15.476-16.771 15.324-16.694 15.116-16.694 14.853V-2.777C-15.561-1.115-14.182 .218-12.556 1.219-10.932 2.22-9.117 2.721-7.114 2.721-4.091 2.721-1.72 1.813 0 0" fill="#313263"/>
<path transform="matrix(1,0,0,-1,1205.6279,466.4063)" d="M0 0C-1.853-1.91-2.91-4.337-3.174-7.284H17.007C16.968-5.471 16.516-3.779 15.646-2.211 14.776-.644 13.586 .595 12.074 1.501 10.563 2.408 8.862 2.862 6.974 2.862 4.176 2.862 1.852 1.908 0 0M13.832 4.053C15.797 2.806 17.318 1.161 18.396-.879 19.473-2.92 20.011-5.111 20.011-7.454 20.011-8.438 19.906-9.128 19.699-9.523 19.491-9.921 19.065-10.119 18.424-10.119H-3.174C-2.834-13.029-1.682-15.429 .284-17.318 2.248-19.209 4.762-20.152 7.823-20.152 10.922-20.152 13.586-19.151 15.816-17.148 16.08-16.885 16.326-16.752 16.553-16.752 16.703-16.752 16.854-16.828 17.007-16.979L17.743-17.659C18.008-17.924 18.14-18.15 18.14-18.339 18.14-18.528 18.026-18.735 17.801-18.963 16.477-20.322 14.928-21.371 13.152-22.108 11.375-22.845 9.468-23.215 7.427-23.215 4.742-23.215 2.344-22.57 .227-21.287-1.89-20.002-3.543-18.245-4.733-16.015-5.924-13.785-6.519-11.328-6.519-8.646-6.519-5.925-5.943-3.458-4.789-1.248-3.637 .963-2.031 2.711 .028 3.995 2.088 5.28 4.423 5.923 7.029 5.923 9.6 5.923 11.867 5.3 13.832 4.053" fill="#313263"/>
<path transform="matrix(1,0,0,-1,1283.9121,461.6729)" d="M0 0C0-.189-.037-.34-.112-.454L-.793-1.871C-.944-2.136-1.152-2.268-1.417-2.268-1.606-2.268-1.937-2.212-2.408-2.098-2.882-1.984-3.4-1.928-3.967-1.928-5.707-1.928-7.19-2.523-8.417-3.713-9.646-4.903-10.26-6.387-10.26-8.163V-26.359C-10.26-26.624-10.336-26.833-10.486-26.983-10.638-27.135-10.847-27.21-11.11-27.21H-12.811C-13.075-27.21-13.284-27.135-13.435-26.983-13.586-26.833-13.661-26.624-13.661-26.359V-.284C-13.661-.02-13.586 .188-13.435 .34-13.284 .49-13.075 .566-12.811 .566H-11.394C-10.902 .566-10.619 .282-10.543-.284L-10.316-2.607C-8.54-.076-6.273 1.189-3.515 1.189-2.153 1.189-1.058 .925-.226 .396-.076 .282 0 .149 0 0" fill="#313263"/>
</g>
</g>
</svg>
